# xmcd
#
# Track frame offsets:
#	150
#	12254
#	25912
#	39253
#	56001
#	72214
#	86966
#	101836
#	118023
#	133752
#	146468
#	160338
#	173601
#	194246
#	216784
#	238955
#	250332
#
# Disc length: 3489 seconds
#
# Revision: 0
# Processed by: cddbd v1.5.2PL0 Copyright (c) Steve Scherf et al.
# Submitted via: EasyCDDAExtractor 15.3.0.1
#
DISCID=fc0d9f11
DTITLE=Various Artist - Maaseutumusiikkia vol 1
DYEAR=2011
DGENRE=Acid
TTITLE0=Pekka Myllykoski ja Jytäjemmarit - Alaska
TTITLE1=Huojuva Lato - Virran Ola on vielä kuningas
TTITLE2=Tarya - Jalat alta
TTITLE3=Tomi Pulkkinen - Piru and sen palkeet
TTITLE4=Milking Machine - Paltaniemen taa
TTITLE5=Markojuhani Rautavaara and Tekosyyttömät - Onkimiehen blues
TTITLE6=Hara Laukkanen and Raaka Peli - Rivitanssi rules
TTITLE7=Artturi Ketola Trio - Täysikäsi-John
TTITLE8=Tero Pulkkinen ja Tapsa Kojo - Lemmenjoen Jeesus
TTITLE9=Juha ja Jamaha - Vaarin saappaat
TTITLE10=Masa and Iilimarot - Lepakot tapulista
TTITLE11=Tekosyyttömät - Romanssi
TTITLE12=Marko Sillanpää - Isättömät pojat
TTITLE13=Kevyet Mullat - Neljä vahvaa tuulta
TTITLE14=Make Häkkinen and Seriffi - Trubaduuri tanssii
TTITLE15=Hannu Sainio - Irrallaan
TTITLE16=Ilkka Vartiainen - Halfway to paradise (instr.)
EXTD=
EXTT0=
EXTT1=
EXTT2=
EXTT3=
EXTT4=
EXTT5=
EXTT6=
EXTT7=
EXTT8=
EXTT9=
EXTT10=
EXTT11=
EXTT12=
EXTT13=
EXTT14=
EXTT15=
EXTT16=
PLAYORDER=
